# xmcd
#
# Track frame offsets: 
#        150
#        13855
#        25903
#        37872
#        52133
#        64086
#        77358
#        91532
#        104035
#        116900
#        129721
#        143427
#        157437
#        170998
#        183724
#        198684
#        211484
#        224854
#        239929
#        254072
#
# Disc length: 3587 seconds
#
# Revision: 2
# Processed by: cddbd v1.4PL0 Copyright (c) Steve Scherf et al.
# Submitted via: ExactAudioCopy v0.90b4
#
DISCID=450e0114
DTITLE=Billie Holiday - The Masters
DYEAR=1998
DGENRE=Blues
TTITLE0=What A Little Moonlight Can Do
TTITLE1=Billie's Blues
TTITLE2=Let's Call The Whole Thing Off
TTITLE3=Strange Fruit
TTITLE4=He's Funny That Way
TTITLE5=God Bless The Child
TTITLE6=Mean To Me
TTITLE7=The Very Thought of You
TTITLE8=I Gotta Right To Sing The Blues
TTITLE9=Them There Eyes
TTITLE10=Night and Day
TTITLE11=The Man I Love
TTITLE12=Body and Soul
TTITLE13=St Louis Blues
TTITLE14=Georgia on My Mind
TTITLE15=Am I Blue?
TTITLE16=I Cover The Waterfront
TTITLE17=Love Me or Leave Me
TTITLE18=I Wished on The Moon
TTITLE19=These Foolish Things
EXTD=
EXTT0=
EXTT1=
EXTT2=
EXTT3=
EXTT4=
EXTT5=
EXTT6=
EXTT7=
EXTT8=
EXTT9=
EXTT10=
EXTT11=
EXTT12=
EXTT13=
EXTT14=
EXTT15=
EXTT16=
EXTT17=
EXTT18=
EXTT19=
PLAYORDER=
